<svg xmlns="http://www.w3.org/2000/svg" version="1.1" xmlns:xlink="http://www.w3.org/1999/xlink" width="512" height="512" x="0" y="0" viewBox="0 0 512 512" style="enable-background:new 0 0 512 512" xml:space="preserve"><g><path d="M481.755 0h-355.34c-4.143 0-7.5 3.358-7.5 7.5s3.357 7.5 7.5 7.5h355.34a5.606 5.606 0 0 1 5.599 5.599v123.653h-17V39.5a7.5 7.5 0 0 0-7.5-7.5H49.146a7.5 7.5 0 0 0-7.5 7.5v330.074a7.5 7.5 0 0 0 7.5 7.5h53.045v17H30.245a5.606 5.606 0 0 1-5.599-5.599V20.599A5.606 5.606 0 0 1 30.245 15h66.17c4.143 0 7.5-3.358 7.5-7.5s-3.357-7.5-7.5-7.5h-66.17C18.887 0 9.646 9.241 9.646 20.599v367.876c0 11.358 9.24 20.599 20.599 20.599h269.447a5.606 5.606 0 0 1 5.599 5.599v76.728c0 11.358 9.24 20.599 20.599 20.599h58.419c4.143 0 7.5-3.358 7.5-7.5s-3.357-7.5-7.5-7.5H325.89a5.606 5.606 0 0 1-5.599-5.599v-76.728c0-11.358-9.24-20.599-20.599-20.599h-78.253v-17h78.253c20.732 0 37.599 16.867 37.599 37.599V472.5a7.5 7.5 0 0 0 7.5 7.5h118.062a7.5 7.5 0 0 0 7.5-7.5v-209h17v227.901a5.606 5.606 0 0 1-5.599 5.599h-77.446c-4.143 0-7.5 3.358-7.5 7.5s3.357 7.5 7.5 7.5h77.446c11.358 0 20.599-9.241 20.599-20.599V20.599C502.353 9.241 493.113 0 481.755 0zm-26.402 420.92h-30.832a6.507 6.507 0 0 1-6.5-6.5v-85.403c0-3.584 2.916-6.5 6.5-6.5h30.832zM421.441 47v8.455c0 7.246-5.895 13.14-13.14 13.14h-29.81c-7.246 0-13.141-5.895-13.141-13.14V47zm-105.306 2v39.08c0 8.331-6.777 15.109-15.108 15.109s-15.109-6.778-15.109-15.109V49zm-215.37 31.28h77.519v91.098h-77.519zM178.283 47v18.28h-77.519V47zm2.741 230.258v47.519H89.927v-47.519zM74.927 324.776h-18.28v-47.519h18.28zm131.512 69.298h-89.248v-17h89.248zM352.291 465v-50.327c0-29.003-23.596-52.599-52.599-52.599h-21.127V254.657h91.928v2.573c0 4.142 3.357 7.5 7.5 7.5s7.5-3.358 7.5-7.5v-21.267c0-4.142-3.357-7.5-7.5-7.5s-7.5 3.358-7.5 7.5v3.694h-99.428a7.5 7.5 0 0 0-7.5 7.5v114.917H56.646v-22.298h125.987c7.384 0 13.391-6.007 13.391-13.391v-50.737c0-7.384-6.007-13.391-13.391-13.391H56.646v-18.639h137.378v1.821c0 4.142 3.357 7.5 7.5 7.5s7.5-3.358 7.5-7.5v-18.955c0-4.142-3.357-7.5-7.5-7.5s-7.5 3.358-7.5 7.5v2.135H56.646V47h29.118v125.987c0 7.384 6.007 13.391 13.391 13.391h80.737c7.384 0 13.391-6.007 13.391-13.391V47h40.126v124.378h-1.821c-4.143 0-7.5 3.358-7.5 7.5s3.357 7.5 7.5 7.5h18.956a7.5 7.5 0 0 0 0-15h-2.135V47h22.508v41.08c0 16.602 13.507 30.109 30.109 30.109s30.108-13.507 30.108-30.109V47h19.217v8.455c0 15.517 12.624 28.14 28.141 28.14h29.81c15.517 0 28.14-12.624 28.14-28.14V47h18.912v260.518h-30.832c-11.856 0-21.5 9.645-21.5 21.5v85.403c0 11.855 9.644 21.5 21.5 21.5h30.832V465zm118.062-216.5v-89.248h17V248.5z" fill="#f65801" opacity="1" data-original="#000000"></path><path d="M422.773 157.743c0-14.748-11.998-26.746-26.746-26.746-14.747 0-26.745 11.998-26.745 26.746 0 14.747 11.998 26.745 26.745 26.745 14.748 0 26.746-11.998 26.746-26.745zm-26.746 11.745c-6.477 0-11.745-5.269-11.745-11.745 0-6.477 5.269-11.746 11.745-11.746 6.477 0 11.746 5.269 11.746 11.746 0 6.476-5.269 11.745-11.746 11.745z" fill="#f65801" opacity="1" data-original="#000000"></path></g></svg>