<svg xmlns="http://www.w3.org/2000/svg" version="1.1" xmlns:xlink="http://www.w3.org/1999/xlink" width="512" height="512" x="0" y="0" viewBox="0 0 64 64" style="enable-background:new 0 0 512 512" xml:space="preserve" class=""><g><path d="M35.02 29.045c1.44 0 2.61-1.171 2.61-2.61s-1.17-2.611-2.61-2.611h-.083V12.627a2.621 2.621 0 0 0-1.497-2.36c-.91-.431-2-.294-2.773.346l-2.634 2.17a2.616 2.616 0 0 0-.352 3.676 2.61 2.61 0 0 0 2.016.947l.02-.001v6.419h-.344c-1.44 0-2.61 1.17-2.61 2.61s1.17 2.61 2.61 2.61zm-6.257-2.61a.61.61 0 0 1 .61-.611h1.344a1 1 0 0 0 1-1v-8.783a.999.999 0 0 0-1.635-.773.614.614 0 0 1-.858-.082.613.613 0 0 1 .082-.86l2.633-2.17a.61.61 0 0 1 .999.47v12.198a1 1 0 0 0 1 1h1.083a.61.61 0 0 1 0 1.22h-5.648a.61.61 0 0 1-.61-.61zM55.79 15.92l-7.762-5.572a1.001 1.001 0 0 0-1.512.441l-.777 1.947-13.124-10.2c-.36-.278-.865-.278-1.226 0l-13.13 10.2-.778-1.946a1.001 1.001 0 0 0-1.511-.442l-7.762 5.572a1 1 0 0 0-.294 1.293l2.132 3.895a14.237 14.237 0 0 0 1.245 16.194l9.88 12.15c-4.452 1.4-7.69 5.565-7.69 10.473v.746a1 1 0 0 0 1 1h34.643a1 1 0 0 0 1-1v-.746c0-4.79-3.088-8.861-7.373-10.358l9.187-10.722c4.23-4.936 4.999-11.98 1.998-17.707l2.148-3.925a1 1 0 0 0-.294-1.293zm-7.89-3.202 6.005 4.31L36.51 48.824c-.022.04-.023.083-.039.124h-3.055L47.9 12.718zM32.002 4.594 44.967 14.67 32 47.101 19.033 14.67l12.97-10.076zM16.1 12.72l14.484 36.229H27.53c-.016-.041-.017-.084-.039-.124L10.094 17.029l6.006-4.31zm7.014 35.955L12.843 36.042a12.243 12.243 0 0 1-1.644-12.827l14.08 25.733h-.819c-.395 0-.784.023-1.168.064a.995.995 0 0 0-.178-.338zm25.007 10.998H15.486c.135-4.833 4.109-8.724 8.974-8.724h14.687c4.866 0 8.84 3.89 8.974 8.724zm2.299-22.126L40.9 48.654a.975.975 0 0 0-.201.417 10.959 10.959 0 0 0-1.553-.123h-.425l14.025-25.633c1.913 4.752 1.069 10.268-2.327 14.23z" fill="#f65801" opacity="1" data-original="#000000"></path></g></svg>