<svg xmlns="http://www.w3.org/2000/svg" version="1.1" xmlns:xlink="http://www.w3.org/1999/xlink" width="512" height="512" x="0" y="0" viewBox="0 0 682.667 682.667" style="enable-background:new 0 0 512 512" xml:space="preserve" class=""><g><defs><clipPath id="a" clipPathUnits="userSpaceOnUse"><path d="M0 512h512V0H0Z" fill="#f65801" opacity="1" data-original="#000000"></path></clipPath><clipPath id="b" clipPathUnits="userSpaceOnUse"><path d="M0 512h512V0H0Z" fill="#f65801" opacity="1" data-original="#000000"></path></clipPath></defs><path d="M223.675 325.324h41.917v40.067h-41.917zM310.437 325.324h41.945v40.067h-41.945zM224.725 240.708h41.917v40.068h-41.917zM311.488 240.708h41.917v40.068h-41.917zM230.279 42h107.763v121.78H230.279Z" style="stroke-width:19.515;stroke-linecap:round;stroke-linejoin:round;stroke-miterlimit:10;stroke-dasharray:none;stroke-opacity:1" transform="matrix(1.33333 0 0 -1.33333 0 682.667)" fill="none" stroke="#f65801" stroke-width="19.515" stroke-linecap="round" stroke-linejoin="round" stroke-miterlimit="10" stroke-dasharray="none" stroke-opacity="" data-original="#000000" class="" opacity="1"></path><path d="M0 0v-121.78" style="stroke-width:19.515;stroke-linecap:round;stroke-linejoin:round;stroke-miterlimit:10;stroke-dasharray:none;stroke-opacity:1" transform="matrix(1.33333 0 0 -1.33333 378.88 464.293)" fill="none" stroke="#f65801" stroke-width="19.515" stroke-linecap="round" stroke-linejoin="round" stroke-miterlimit="10" stroke-dasharray="none" stroke-opacity="" data-original="#000000" class="" opacity="1"></path><g clip-path="url(#a)" transform="matrix(1.33333 0 0 -1.33333 0 682.667)"><path d="M31.498 42H171.7v288.439H31.498Z" style="stroke-width:19.515;stroke-linecap:round;stroke-linejoin:round;stroke-miterlimit:10;stroke-dasharray:none;stroke-opacity:1" fill="none" stroke="#f65801" stroke-width="19.515" stroke-linecap="round" stroke-linejoin="round" stroke-miterlimit="10" stroke-dasharray="none" stroke-opacity="" data-original="#000000" class="" opacity="1"></path></g><path d="M79.493 234.708h39.873v38.104H79.493ZM79.493 157.752h39.873v38.104H79.493Z" style="stroke-width:19.515;stroke-linecap:round;stroke-linejoin:round;stroke-miterlimit:10;stroke-dasharray:none;stroke-opacity:1" transform="matrix(1.33333 0 0 -1.33333 0 682.667)" fill="none" stroke="#f65801" stroke-width="19.515" stroke-linecap="round" stroke-linejoin="round" stroke-miterlimit="10" stroke-dasharray="none" stroke-opacity="" data-original="#000000" class="" opacity="1"></path><g clip-path="url(#b)" transform="matrix(1.33333 0 0 -1.33333 0 682.667)"><path d="M0 0c34.815-45.294 69.106-152.059-22.99-152.059-91.764 0-61.949 105.963-26.913 151.562C-30.505 24.722-19.37 25.219 0 0Z" style="stroke-width:19.515;stroke-linecap:round;stroke-linejoin:round;stroke-miterlimit:10;stroke-dasharray:none;stroke-opacity:1" transform="translate(465.81 260.147)" fill="none" stroke="#f65801" stroke-width="19.515" stroke-linecap="round" stroke-linejoin="round" stroke-miterlimit="10" stroke-dasharray="none" stroke-opacity="" data-original="#000000" class="" opacity="1"></path><path d="M0 0v-193.482c-21.525-39.708-33.655-97.252 0-120.591v-76.541h-231.055V0" style="stroke-width:19.515;stroke-linecap:round;stroke-linejoin:round;stroke-miterlimit:10;stroke-dasharray:none;stroke-opacity:1" transform="translate(402.755 432.614)" fill="none" stroke="#f65801" stroke-width="19.515" stroke-linecap="round" stroke-linejoin="round" stroke-miterlimit="10" stroke-dasharray="none" stroke-opacity="" data-original="#000000" class="" opacity="1"></path><path d="M0 0v172.604" style="stroke-width:19.515;stroke-linecap:round;stroke-linejoin:round;stroke-miterlimit:10;stroke-dasharray:none;stroke-opacity:1" transform="translate(442.793 44.766)" fill="none" stroke="#f65801" stroke-width="19.515" stroke-linecap="round" stroke-linejoin="round" stroke-miterlimit="10" stroke-dasharray="none" stroke-opacity="" data-original="#000000" class="" opacity="1"></path><path d="m0 0 23.293-16.592" style="stroke-width:19.515;stroke-linecap:round;stroke-linejoin:round;stroke-miterlimit:10;stroke-dasharray:none;stroke-opacity:1" transform="translate(419.5 157.642)" fill="none" stroke="#f65801" stroke-width="19.515" stroke-linecap="round" stroke-linejoin="round" stroke-miterlimit="10" stroke-dasharray="none" stroke-opacity="" data-original="#000000" class="" opacity="1"></path><path d="m0 0-17.463-16.619" style="stroke-width:19.515;stroke-linecap:round;stroke-linejoin:round;stroke-miterlimit:10;stroke-dasharray:none;stroke-opacity:1" transform="translate(460.256 180.04)" fill="none" stroke="#f65801" stroke-width="19.515" stroke-linecap="round" stroke-linejoin="round" stroke-miterlimit="10" stroke-dasharray="none" stroke-opacity="" data-original="#000000" class="" opacity="1"></path><path d="m0 0 17.436-16.619" style="stroke-width:19.515;stroke-linecap:round;stroke-linejoin:round;stroke-miterlimit:10;stroke-dasharray:none;stroke-opacity:1" transform="translate(425.357 193.534)" fill="none" stroke="#f65801" stroke-width="19.515" stroke-linecap="round" stroke-linejoin="round" stroke-miterlimit="10" stroke-dasharray="none" stroke-opacity="" data-original="#000000" class="" opacity="1"></path><path d="M0 0h434.645" style="stroke-width:19.515;stroke-linecap:round;stroke-linejoin:round;stroke-miterlimit:10;stroke-dasharray:none;stroke-opacity:1" transform="translate(17.377 42)" fill="none" stroke="#f65801" stroke-width="19.515" stroke-linecap="round" stroke-linejoin="round" stroke-miterlimit="10" stroke-dasharray="none" stroke-opacity="" data-original="#000000" class="" opacity="1"></path><path d="m0 0 89.333-.027c10.251 0 18.651 8.433 18.651 18.693 0 10.286-8.4 18.692-18.651 18.692h-256.366c-10.251 0-18.651-8.406-18.651-18.692 0-10.26 8.4-18.693 18.651-18.693h89.305" style="stroke-width:19.515;stroke-linecap:round;stroke-linejoin:round;stroke-miterlimit:10;stroke-dasharray:none;stroke-opacity:1" transform="translate(326.077 432.642)" fill="none" stroke="#f65801" stroke-width="19.515" stroke-linecap="round" stroke-linejoin="round" stroke-miterlimit="10" stroke-dasharray="none" stroke-opacity="" data-original="#000000" class="" opacity="1"></path><path d="M0 0h-142.219C-152.94 0-161.7 8.766-161.7 19.495c0 10.729 8.76 19.494 19.481 19.494H0Z" style="stroke-width:19.515;stroke-linecap:round;stroke-linejoin:round;stroke-miterlimit:10;stroke-dasharray:none;stroke-opacity:1" transform="translate(171.7 330.44)" fill="none" stroke="#f65801" stroke-width="19.515" stroke-linecap="round" stroke-linejoin="round" stroke-miterlimit="10" stroke-dasharray="none" stroke-opacity="" data-original="#000000" class="" opacity="1"></path><path d="M0 0h.193" style="stroke-width:19.515;stroke-linecap:round;stroke-linejoin:round;stroke-miterlimit:10;stroke-dasharray:none;stroke-opacity:1" transform="translate(287.227 432.614)" fill="none" stroke="#f65801" stroke-width="19.515" stroke-linecap="round" stroke-linejoin="round" stroke-miterlimit="10" stroke-dasharray="none" stroke-opacity="" data-original="#000000" class="" opacity="1"></path></g></g></svg>