<svg xmlns="http://www.w3.org/2000/svg" version="1.1" xmlns:xlink="http://www.w3.org/1999/xlink" width="512" height="512" x="0" y="0" viewBox="0 0 512 512" style="enable-background:new 0 0 512 512" xml:space="preserve" class=""><g><path d="M485.016 360.165c11.9-11.897 17.944-26.904 17.479-43.4l-4.487-158.367c-.429-15.161-15.729-28.714-32.004-28.47-7.897.127-33.649 4.432-33.459 54.507l.328 86.028c.011 3.013-.272 5.893-.865 8.677a32.258 32.258 0 0 0-3.662-4.354c-10.91-10.909-28.798-11.035-40.723-.285-.268.241-.519.5-.752.775-13.942 16.485-31.036 30.892-44.771 42.468-4.797 4.042-9.327 7.86-13.037 11.205-15.272 13.765-17.311 32.852-17.29 49.708l.077 62.489-9.169-.079h-.166c-10.371 0-18.852 8.392-18.941 18.782l-.206 23.966c-.043 5.048 1.89 9.818 5.443 13.434s8.291 5.63 13.338 5.674l124.494 1.069h.167c4.986 0 9.692-1.929 13.268-5.443 3.615-3.554 5.63-8.291 5.673-13.339l.206-23.966c.09-10.445-8.335-19.018-18.781-19.107l-11.445-.098v-12.584zm-55.062 100.942-.206 23.966a2.93 2.93 0 0 1-.89 2.065c-.326.32-1.024.854-2.055.854h-.025l-124.494-1.069c-1.597-.014-2.934-1.374-2.92-2.971l.206-23.966c.014-1.588 1.36-2.919 2.946-2.919h.024l124.494 1.069c1.597.014 2.934 1.374 2.92 2.971zm-102.107-19.824-.077-62.646c-.017-14.001 1.425-28.271 12.002-37.804 3.512-3.167 7.74-6.729 12.636-10.855 14.072-11.859 31.555-26.594 46.289-43.912 5.666-4.814 13.471-4.829 18.333.034 5.169 5.168 5.205 11.266.125 18.125-7.369 8.286-15.1 15.772-23.282 23.69-3.907 3.781-7.947 7.69-12.018 11.763a7.999 7.999 0 0 0 0 11.313c1.562 1.562 3.609 2.343 5.657 2.343s4.095-.781 5.657-2.344c3.979-3.979 7.971-7.842 11.831-11.577 8.499-8.225 16.526-15.993 24.375-24.847.038-.043.069-.089.106-.133.034-.04.071-.074.104-.115l5.926-7.257c9.041-11.13 13.411-23.121 13.361-36.66l-.328-86.028c-.09-23.896 6.532-38.269 17.716-38.448l.211-.002c7.554 0 15.361 6.463 15.544 12.927l4.487 158.366c.343 12.157-3.963 22.801-12.798 31.634l-71.632 71.633a8.002 8.002 0 0 0-2.343 5.657v15.76zm-18.203 28.082a7.447 7.447 0 1 1 13.84 5.503 7.447 7.447 0 0 1-13.84-5.503zm-86.888-22.855c-3.615-3.554-8.35-5.459-13.434-5.443l-9.169.079.076-62.49c.021-16.855-2.018-35.943-17.289-49.707-3.71-3.344-8.24-7.161-13.035-11.203-13.736-11.577-30.832-25.984-44.775-42.47a7.85 7.85 0 0 0-.751-.775c-11.924-10.751-29.812-10.625-40.724.285a32.258 32.258 0 0 0-3.662 4.354c-.592-2.784-.876-5.665-.865-8.677l.328-86.028c.189-50.075-25.562-54.38-33.459-54.507-.155-.002-.309-.004-.464-.004-16.145 0-31.116 13.457-31.54 28.474L9.505 316.765c-.465 16.495 5.579 31.502 17.478 43.399l69.289 69.289v12.584l-11.444.098c-5.048.044-9.786 2.059-13.339 5.674s-5.486 8.386-5.442 13.434l.206 23.966c.089 10.391 8.571 18.783 18.944 18.782h.163l124.494-1.07c10.446-.09 18.871-8.661 18.781-19.106l-.206-23.966c-.044-5.049-2.058-9.785-5.673-13.339zm-110.484-20.37a8.002 8.002 0 0 0-2.343-5.657L38.296 348.85c-8.834-8.833-13.141-19.477-12.798-31.633l4.487-158.367c.183-6.464 7.989-12.927 15.544-12.927l.211.002c11.184.18 17.806 14.553 17.716 38.448l-.328 86.028c-.05 13.538 4.32 25.529 13.374 36.677l5.913 7.24c.035.043.074.08.11.122.035.041.064.084.099.124 7.85 8.856 15.879 16.627 24.38 24.854 3.859 3.733 7.849 7.595 11.826 11.572 1.562 1.562 3.609 2.343 5.657 2.343s4.095-.781 5.657-2.343a8 8 0 0 0 0-11.314c-4.069-4.069-8.107-7.977-12.013-11.756-8.184-7.92-15.919-15.409-23.29-23.699-5.078-6.856-5.042-12.954.127-18.121 4.864-4.864 12.668-4.85 18.333-.034 14.735 17.318 32.219 32.054 46.292 43.914 4.895 4.125 9.122 7.688 12.634 10.854 10.577 9.532 12.019 23.802 12.001 37.803l-.076 62.647-71.88.617zm97.444 60.781-124.493 1.07h-.024c-1.586 0-2.934-1.331-2.948-2.919l-.206-23.966a2.931 2.931 0 0 1 .854-2.081 2.93 2.93 0 0 1 2.065-.89l124.494-1.069h.026a2.93 2.93 0 0 1 2.054.854c.329.323.881 1.021.89 2.065l.206 23.966c.015 1.597-1.322 2.957-2.918 2.97zm-7.36-17.556a7.447 7.447 0 1 1-13.84 5.502 7.446 7.446 0 1 1 13.84-5.502zm90.245-191.264a7.999 7.999 0 0 0 14.145 1.052l16.619-26.779 30.876 6.323a7.988 7.988 0 0 0 7.81-2.787 8.004 8.004 0 0 0 1.143-8.215l-23.039-53.492 1.31-.559c12.491-5.349 19.8-18.009 18.188-31.502-.29-2.427-.561-4.586-.804-6.524-.962-7.669-1.445-11.518-.945-14.35s2.27-6.283 5.796-13.161c.891-1.738 1.884-3.674 2.986-5.854 6.13-12.127 3.592-26.523-6.316-35.823a989.72 989.72 0 0 0-4.808-4.479c-5.667-5.257-8.511-7.896-9.949-10.386s-2.3-6.272-4.02-13.808c-.435-1.905-.918-4.027-1.476-6.407-3.1-13.229-14.298-22.626-27.866-23.381-2.439-.136-4.612-.244-6.563-.342-7.72-.384-11.595-.577-14.297-1.561-2.702-.983-5.794-3.326-11.954-7.993-1.558-1.18-3.292-2.494-5.249-3.958-10.878-8.142-25.496-8.142-36.375 0-1.957 1.464-3.691 2.778-5.249 3.958-6.16 4.667-9.252 7.01-11.954 7.993s-6.577 1.177-14.297 1.561c-1.951.098-4.124.206-6.563.342-13.568.755-24.766 10.151-27.865 23.381-.558 2.38-1.042 4.502-1.476 6.406-1.719 7.535-2.582 11.317-4.02 13.808s-4.282 5.13-9.949 10.387a1156.89 1156.89 0 0 0-4.808 4.479c-9.908 9.299-12.447 23.695-6.316 35.823 1.103 2.181 2.096 4.117 2.987 5.856 3.526 6.876 5.296 10.328 5.796 13.16.499 2.831.016 6.681-.946 14.35-.243 1.938-.514 4.098-.804 6.523-1.613 13.493 5.696 26.153 18.188 31.502a980.903 980.903 0 0 0 6.676 2.829l-28.31 60.806a8 8 0 0 0 8.629 11.258l31.048-5.426 15.835 27.251a7.999 7.999 0 0 0 14.17-.643l28.419-61.042c4.246-1.267 6.853-1.903 8.997-1.903 2.875 0 6.583 1.144 13.968 3.423.732.226 1.507.465 2.307.71zm28.512-42.519a7.993 7.993 0 0 0-8.402 3.619l-11.477 18.494-10.656-24.741c7.951-1.455 15.16-6.091 19.858-13.272a1074.77 1074.77 0 0 0 3.577-5.514c4.193-6.493 6.297-9.753 8.5-11.601.787-.661 1.754-1.278 2.991-1.935l16.933 39.317zm-110.565 33.49-10.936-18.819a8.009 8.009 0 0 0-8.294-3.861l-21.442 3.747 21.335-45.825c1.705 2.001 3.665 5.036 6.776 9.854 1.06 1.642 2.241 3.469 3.578 5.515 5.803 8.873 15.443 13.842 25.58 13.74zM256 210.787c-4.89 0-9.78 1.374-18.686 4.122-1.84.568-3.89 1.201-6.195 1.897-6.246 1.89-12.591-.421-16.163-5.883a1051.834 1051.834 0 0 1-3.527-5.437c-10.112-15.659-11.45-16.781-28.627-24.021-1.775-.748-3.752-1.581-5.967-2.529-5.999-2.569-9.375-8.416-8.6-14.896.286-2.392.553-4.52.792-6.431 2.32-18.496 2.017-20.216-6.489-36.803-.879-1.714-1.858-3.623-2.945-5.773-2.944-5.823-1.771-12.473 2.986-16.938 1.756-1.647 3.328-3.106 4.74-4.416C180.986 81 181.86 79.489 186.006 61.315c.428-1.879.906-3.97 1.455-6.316 1.488-6.354 6.66-10.692 13.176-11.056 2.405-.134 4.547-.24 6.471-.336 18.618-.927 20.259-1.524 35.117-12.78 1.536-1.164 3.245-2.459 5.174-3.903 5.224-3.91 11.977-3.91 17.2 0 1.929 1.444 3.639 2.739 5.174 3.903 14.858 11.256 16.499 11.854 35.117 12.78 1.924.096 4.066.202 6.471.336 6.516.363 11.688 4.703 13.176 11.056a1105.49 1105.49 0 0 1 1.455 6.316c4.146 18.174 5.019 19.686 18.687 32.364 1.412 1.31 2.984 2.769 4.74 4.416 4.758 4.466 5.931 11.115 2.986 16.938-1.087 2.15-2.065 4.059-2.944 5.772-8.506 16.587-8.809 18.307-6.489 36.803.24 1.911.506 4.04.792 6.432.774 6.48-2.601 12.327-8.6 14.896-2.215.948-4.192 1.781-5.968 2.529-17.177 7.239-18.515 8.361-28.627 24.021-1.045 1.618-2.208 3.42-3.526 5.436-3.571 5.462-9.917 7.774-16.162 5.883-2.306-.696-4.355-1.329-6.196-1.897-8.905-2.747-13.795-4.121-18.685-4.121zm70.556-90.064c0-38.904-31.651-70.556-70.556-70.556s-70.556 31.651-70.556 70.556S217.095 191.28 256 191.28s70.556-31.652 70.556-70.557zM256 175.28c-30.082 0-54.556-24.474-54.556-54.557 0-30.082 24.474-54.556 54.556-54.556s54.556 24.474 54.556 54.556c0 30.083-24.474 54.557-54.556 54.557zm31.521-75.834a8 8 0 0 1-.548 11.3l-35.046 31.804a7.97 7.97 0 0 1-5.375 2.076 7.98 7.98 0 0 1-5.658-2.343l-16.147-16.147a8 8 0 0 1 11.313-11.314l10.758 10.759 29.402-26.682a7.997 7.997 0 0 1 11.301.547zM99.242 62.067a8 8 0 0 1 8-8h24.527a8 8 0 0 1 0 16h-24.527a8 8 0 0 1-8-8zM82.475 45.299V20.772a8 8 0 0 1 16 0v24.527a8 8 0 0 1-16 0zm0 58.062V78.833a8 8 0 0 1 16 0v24.527a8 8 0 0 1-16 .001zM41.181 62.067a8 8 0 0 1 8-8h24.527a8 8 0 0 1 0 16H49.181a8 8 0 0 1-8-8zm389.11 0a8 8 0 0 1 8-8h24.527a8 8 0 0 1 0 16h-24.527a8 8 0 0 1-8-8zm-16.766-16.768V20.772a8 8 0 0 1 16 0v24.527a8 8 0 0 1-16 0zm-41.294 16.768a8 8 0 0 1 8-8h24.527a8 8 0 0 1 0 16h-24.527a8 8 0 0 1-8-8zm41.294 41.294V78.833a8 8 0 0 1 16 0v24.527a8 8 0 0 1-16 .001z" fill="#f65801" opacity="1" data-original="#000000" class=""></path></g></svg>