<svg xmlns="http://www.w3.org/2000/svg" version="1.1" xmlns:xlink="http://www.w3.org/1999/xlink" width="512" height="512" x="0" y="0" viewBox="0 0 64 64" style="enable-background:new 0 0 512 512" xml:space="preserve" class=""><g><path d="m59.477 47 3.451-8.628-1.857-.743L57.323 47H57V35h-2V19h-4v-4h-2v4h-2v-6h-2v6h-2v-4h-2v4h-4v12h-4v5.129a17.767 17.767 0 0 0-9.225-5.968l-.454-1.361a5.005 5.005 0 0 0 3.255-2.8H27c2.206 0 4-1.794 4-4v-5c1.103 0 2-.897 2-2v-2c0-1.103-.897-2-2-2h-.174C29.869 5.24 24.943 1 19 1S8.131 5.24 7.174 11H7c-1.103 0-2 .897-2 2v2c0 1.103.897 2 2 2v5c0 2.206 1.794 4 4 4h.424a5.004 5.004 0 0 0 3.255 2.8l-.454 1.361C6.41 32.222 1 39.208 1 47.342V48c0 4.264 2.444 7.961 6 9.786V63h30v-8h3.101c.465 2.279 2.484 4 4.899 4s4.434-1.721 4.899-4h5.019a8.155 8.155 0 0 0 8.069-6.835L63.181 47zM47 47V37h8v10zm-8-26h14v14h-6v-4h-8zm6 12v14H35V33zm-12 6.676V47h-.323l-3.749-9.372-1.857.743L30.523 47H26.82l.194 1.165A8.161 8.161 0 0 0 29 52.29V61h-5v-2c1.654 0 3-1.346 3-3s-1.346-3-3-3V32.327a15.762 15.762 0 0 1 9 7.349zM21.279 29l.617 1.852L19 35.197l-2.897-4.345.618-1.852zM22 39.149l-1.762-2.203L22 34.303zm-6 0v-4.846l1.762 2.643zm0 3.201 3-3.75 3 3.75v8.826A2.99 2.99 0 0 0 21 51h-1.171c-.801 0-1.555.312-2.122.879l-1.026 1.026-.681-.152zm2 12.064 1.121-1.121a.996.996 0 0 1 .708-.293H21c.551 0 1 .449 1 1v1h2c.551 0 1 .449 1 1s-.449 1-1 1h-6zM22 59v2h-6v-2zm5-35v-4c1.103 0 2 .897 2 2s-.897 2-2 2zm2-5.444A3.959 3.959 0 0 0 27 18v-1h2zM28.796 11H22V3.458A9.914 9.914 0 0 1 28.796 11zM20 3.05V11h-2V3.05c.329-.032.662-.05 1-.05s.671.018 1 .05zm-4 .408V11H9.204A9.914 9.914 0 0 1 16 3.458zM6.999 13H31v2H7zM11 17v1c-.732 0-1.409.212-2 .556V17zm-2 5c0-1.103.897-2 2-2v4c-1.103 0-2-.897-2-2zm4 2v-7h12v7c0 1.654-1.346 3-3 3h-6c-1.654 0-3-1.346-3-3zM3 48v-.658c0-6.96 4.464-12.968 11-15.029V52.31l-1.085-.241A4.972 4.972 0 0 1 9 47.187V43H7v4.187a6.958 6.958 0 0 0 5.481 6.833l3.519.782V57h-4c-4.962 0-9-4.038-9-9zm6 10.574c.955.271 1.959.426 3 .426h2v2H9zM31 61v-7.086a8.175 8.175 0 0 0 4 1.083V61zm14-4c-1.654 0-3-1.346-3-3 0-.551.449-1 1-1h4c.551 0 1 .449 1 1 0 1.654-1.346 3-3 3zm9.917-4h-5.102a2.996 2.996 0 0 0-2.816-2h-4a2.996 2.996 0 0 0-2.816 2h-5.102a6.159 6.159 0 0 1-5.785-4H60.7a6.153 6.153 0 0 1-5.783 4z" fill="#f65801" opacity="1" data-original="#000000" class=""></path><path d="M49 23h2v2h-2zM45 23h2v2h-2zM41 23h2v2h-2zM49 27h2v2h-2zM41 27h2v2h-2zM45 27h2v2h-2zM49 31h2v2h-2zM37 35h2v10h-2zM41 35h2v10h-2zM49 39h4v2h-4zM49 43h4v2h-4z" fill="#f65801" opacity="1" data-original="#000000" class=""></path></g></svg>