<svg xmlns="http://www.w3.org/2000/svg" version="1.1" xmlns:xlink="http://www.w3.org/1999/xlink" width="512" height="512" x="0" y="0" viewBox="0 0 64 64" style="enable-background:new 0 0 512 512" xml:space="preserve" class=""><g><path d="M63.615 10.231C63.599 10.215 53.191 3 53 3h-6l-34.202 7.021c-.35.071-.557.329-.566.339l-5 6A1 1 0 0 0 8 18h22v3.184A2.996 2.996 0 0 0 28 24c0 .932.436 1.756 1.105 2.307l-5.756 4.934c-.009.008-.009.018-.017.026a.988.988 0 0 0-.332.734v4a1 1 0 0 0 1 1h14a1 1 0 0 0 1-1v-4a.99.99 0 0 0-.332-.734c-.008-.008-.008-.018-.017-.026l-5.756-4.934A2.984 2.984 0 0 0 34 24a2.996 2.996 0 0 0-2-2.816V18h13v35h-3a1 1 0 0 0-1 1v3h-4V41a1 1 0 0 0-1-1H21V23a1 1 0 0 0-1-1h-4a1 1 0 0 0-1 1v10h-3V23a1 1 0 0 0-1-1H7a1 1 0 0 0-1 1v10H4a1 1 0 0 0-1 1v23H1a1 1 0 0 0-1 1v5a1 1 0 0 0 1 1h62a1 1 0 0 0 1-1v-5a1 1 0 0 0-1-1h-6v-3a1 1 0 0 0-1-1h-2V17.744l3-.9V21a1 1 0 0 0 1 1h5a1 1 0 0 0 1-1V11a.982.982 0 0 0-.385-.769zM31 23a1 1 0 0 1 .001 2H31a1 1 0 0 1 .001-2zm0 4.317L35.297 31h-8.594zM37 35H25v-2h12zm17-19.344V12h8v1.256zM44 16v-4h8v4zm-13.865 0L33 12.562 35.865 16zm-7.319-6 22.218-4.574L42.42 10zm18.049 2L38 15.438 35.135 12zm-10 0L28 15.438 25.135 12zm-10 0L18 15.438 15.135 12zm2.135.562L25.865 16h-5.73zm19 1.2V16h-1.865zM47.721 33 52 29.943v6.113l-4.279-3.057zm3.559 5-4.279 3.057v-6.113l4.279 3.057zm0-10-4.279 3.057v-6.113l4.279 3.057zm-3.659-5.072 4.38-3.754v6.882zM47.722 43l4.279-3.057v6.113l-4.279-3.057zm3.659 5.072-4.38 3.754v-6.882zm2.62-42.151L59.829 10h-5.828zm-2-.921v5h-7.277l2.857-5zM13 12.562 15.865 16h-5.73zM50.297 18 47 20.826V18zM19 24v13.235l-2-3.5V24zM8 24h2v9H8zM5 35h10.42l3.712 6.496A.999.999 0 0 0 20 42h15v15h-8v-7a1 1 0 0 0-1-1H14a1 1 0 0 0-1 1v7H5zm10 22v-6h10v6zm47 5H2v-3h60zm-7-5H43v-2h12zm-6.297-4L52 50.174V53zM59 20v-3.756l3-.9V20z" fill="#f65801" opacity="1" data-original="#000000" class=""></path><path d="M23 46h8a1 1 0 0 0 0-2h-8a1 1 0 0 0 0 2zM17 46a1 1 0 0 0 0-2H9a1 1 0 0 0 0 2zM9 41h4a1 1 0 0 0 0-2H9a1 1 0 0 0 0 2z" fill="#f65801" opacity="1" data-original="#000000" class=""></path></g></svg>