<svg xmlns="http://www.w3.org/2000/svg" version="1.1" xmlns:xlink="http://www.w3.org/1999/xlink" width="512" height="512" x="0" y="0" viewBox="0 0 64 64" style="enable-background:new 0 0 512 512" xml:space="preserve" class=""><g><path d="M57.953 41.502A5.98 5.98 0 0 0 60 37c0-3.309-2.691-6-6-6s-6 2.691-6 6a6 6 0 0 0 3.067 5.229c-1.983 1.272-3.372 3.418-3.577 5.899L47.087 53H42c-1.654 0-3 1.346-3 3s1.346 3 3 3h4v4h17V48.769c0-3.325-2.103-6.161-5.047-7.267zM54 33c2.206 0 4 1.794 4 4s-1.794 4-4 4-4-1.794-4-4 1.794-4 4-4zm7 28H48v-2h.347a4.974 4.974 0 0 0 4.979-4.547l.669-7.362-1.992-.181-.669 7.362A2.984 2.984 0 0 1 48.347 57H42c-.551 0-1-.449-1-1s.449-1 1-1h5.087a1.992 1.992 0 0 0 1.992-1.827l.404-4.88c.246-2.968 2.77-5.293 5.748-5.293A5.776 5.776 0 0 1 61 48.769zM22 53l-5.086.008-.404-4.88c-.206-2.481-1.595-4.627-3.577-5.899A6 6 0 0 0 16 37c0-3.309-2.691-6-6-6s-6 2.691-6 6a5.98 5.98 0 0 0 2.047 4.502C3.103 42.608 1 45.444 1 48.769V63h17v-4h4c1.654 0 3-1.346 3-3s-1.346-3-3-3zM10 33c2.206 0 4 1.794 4 4s-1.794 4-4 4-4-1.794-4-4 1.794-4 4-4zm12 24h-6.347a2.984 2.984 0 0 1-2.987-2.728l-.669-7.362-1.992.181.669 7.362A4.974 4.974 0 0 0 15.653 59H16v2H3V48.769A5.776 5.776 0 0 1 8.769 43c2.978 0 5.503 2.325 5.749 5.293l.404 4.888A1.99 1.99 0 0 0 16.913 55H22c.551 0 1 .449 1 1s-.449 1-1 1zM41.089 37.166c.104-.227.2-.455.286-.685L44 35.763v-5.526l-2.625-.718a10.038 10.038 0 0 0-.286-.685l1.35-2.366-1.587-1.587c.088-.28.148-.572.148-.881 0-1.134-.64-2.112-1.571-2.621l2.441-4.882A10.797 10.797 0 0 0 42.918 13h1.516L48 18.944l3.299-5.5a.917.917 0 0 1 1.701.472V21h2v-7.084A2.92 2.92 0 0 0 52.084 11a2.928 2.928 0 0 0-2.5 1.416L48 15.056 45.566 11h-2.602c-.367-5.574-5.007-10-10.672-10h-.584c-5.665 0-10.305 4.426-10.672 10h-2.602L16 15.056l-1.584-2.64a2.93 2.93 0 0 0-2.5-1.416A2.92 2.92 0 0 0 9 13.916V21h2v-7.084a.917.917 0 0 1 1.701-.471L16 18.944 19.566 13h1.516a10.782 10.782 0 0 0 1.048 3.497l2.441 4.882A2.989 2.989 0 0 0 23 24c0 .309.06.601.148.882l-1.587 1.587 1.35 2.366c-.104.227-.2.455-.286.685L20 30.237v5.526l2.625.717c.086.23.182.458.286.685l-1.35 2.366 3.908 3.908 2.366-1.35c.227.104.455.2.685.286L29.237 45h5.526l.717-2.625c.23-.086.458-.182.685-.286l2.366 1.35 3.908-3.908zM36 33c0 2.206-1.794 4-4 4a4.004 4.004 0 0 1-3.832-5.149 6.957 6.957 0 0 0 7.663 0c.111.37.169.756.169 1.149zM26 23h12c.551 0 1 .449 1 1s-.449 1-1 1H26c-.551 0-1-.449-1-1s.449-1 1-1zm6 8a5.01 5.01 0 0 1-4.899-4h9.798A5.01 5.01 0 0 1 32 31zm-9-19.292C23 6.906 26.906 3 31.708 3h.584C37.094 3 41 6.906 41 11.708a8.764 8.764 0 0 1-.919 3.895L37.382 21H33v-5.142c1.72-.447 3-2 3-3.858 0-2.206-1.794-4-4-4s-4 1.794-4 4c0 1.858 1.28 3.411 3 3.858V21h-4.382l-2.699-5.397A8.764 8.764 0 0 1 23 11.708zM32 14c-1.103 0-2-.897-2-2s.897-2 2-2 2 .897 2 2-.897 2-2 2zm6.196 26.946-1.979-1.129-.486.256c-.449.237-.91.43-1.371.572l-.525.162L33.237 43h-2.474l-.6-2.193-.525-.162a7.982 7.982 0 0 1-1.372-.572l-.485-.256-1.978 1.128-1.75-1.749 1.129-1.979-.256-.486a7.986 7.986 0 0 1-.572-1.371l-.162-.525L22 34.237v-2.474l2.193-.6.162-.525c.142-.46.334-.922.572-1.372l.256-.485-1.128-1.978.3-.3c.214.141.452.246.7.329a6.965 6.965 0 0 0 1.529 3.595A5.981 5.981 0 0 0 26 33c0 3.309 2.691 6 6 6s6-2.691 6-6a5.97 5.97 0 0 0-.584-2.572 6.97 6.97 0 0 0 1.53-3.595 3.01 3.01 0 0 0 .7-.329l.3.3-1.128 1.978.256.485c.237.45.43.911.572 1.372l.162.525 2.193.6v2.474l-2.193.599-.162.525c-.142.46-.334.921-.572 1.371l-.256.486 1.129 1.979zM53 27h2v2h-2z" fill="#f65801" opacity="1" data-original="#000000" class=""></path><path d="M53 23h2v2h-2zM9 27h2v2H9zM9 23h2v2H9z" fill="#f65801" opacity="1" data-original="#000000" class=""></path></g></svg>