<svg xmlns="http://www.w3.org/2000/svg" version="1.1" xmlns:xlink="http://www.w3.org/1999/xlink" width="512" height="512" x="0" y="0" viewBox="0 0 512 512" style="enable-background:new 0 0 512 512" xml:space="preserve" class=""><g><path d="M168 200h16v16h-16zM224 368h16v16h-16zM272 368h16v16h-16zM248 336h16v16h-16zM64 312h16v16H64zM64 360h16v16H64zM88 336h16v16H88zM64 408h16v16H64zM64 448h16v16H64zM88 384h16v16H88z" fill="#f65801" opacity="1" data-original="#000000" class=""></path><path d="m462.246 480-6.485-25.94A8 8 0 0 0 448 448h-16V312h-16v9.186l-32 34.448v-36.208l32-34.448V296h16V136h40a8 8 0 0 0 7.155-4.422l16-32a8 8 0 0 0-1.5-9.235L440 36.686V24a8 8 0 0 0-8-8h-24a8 8 0 0 0-7.311 4.751l-5.2 11.71L47.1 72.051A8 8 0 0 0 40 80v8H24a8 8 0 0 0-7.155 11.578l16 32A8 8 0 0 0 40 136h40v-16H44.944l-8-16H136v16H96v16h72v32h-8a8 8 0 0 0-7.311 4.751l-16 36a8 8 0 0 0 .365 7.218l16 28A8 8 0 0 0 160 248h8v12.687l-21.657 21.656a8 8 0 0 0-1.932 8.187l8 24A8 8 0 0 0 160 320h32a8 8 0 0 0 8-8v-24h-16v16h-18.234l-4.613-13.839 20.5-20.5A8 8 0 0 0 184 264v-16h8a8 8 0 0 0 6.946-4.031l16-28a8 8 0 0 0 .365-7.218l-16-36A8 8 0 0 0 192 168h-8v-32h99.056l29.789 59.578A8 8 0 0 0 320 200h48v248h-16a8 8 0 0 0-7.761 6.06L337.754 480H320V360a8 8 0 0 0-1.685-4.911L303.468 336H304v-24h-16v4.113l-25.685-33.024a8 8 0 0 0-12.336-.357l-56 64A8 8 0 0 0 192 352v52.686l-26.343-26.343a8 8 0 0 0-11.314 0L136 396.686V320a8 8 0 0 0-3.088-6.314l-72-56A8 8 0 0 0 56 256v-32H40v32a8 8 0 0 0-8 8v96h16v-88h5.255L120 323.913v88.773l-13.657 13.657A8 8 0 0 0 104 432v48H48V376H32v104H16v16h480v-16zm-263.2-268.452L187.357 232h-22.714l-11.687-20.452L165.2 184h21.6zM416 344.694v40.492l-32 34.448v-40.492zM416 136v1.186l-32 34.448V136zm-32 59.142 32-34.448v36.776l-32 34.448zm0 100.776v-40.492l32-34.448v40.492zM467.056 120H216v-16h259.056zm1.63-32H440V59.314zM413.2 32H424v56h-35.69zM56 87.143l331.947-37.722L370.8 88H56zM152 120v-16h48v16zm172.944 64-8-16H336v-16h-27.056l-8-16H368v48zM384 443.142l32-34.448V448h-32zM232 448v32h-16v-48a8 8 0 0 0-2.343-5.657L208 420.686V416h96v24h-64a8 8 0 0 0-8 8zm23.637-147.437L304 362.745V400h-96v-44.994zM168 480v-32h-16v32h-32v-44.687l40-40 40 40V480zm80 0v-24h56v24zm106.246 0 4-16h83.508l4 16z" fill="#f65801" opacity="1" data-original="#000000" class=""></path></g></svg>