<svg xmlns="http://www.w3.org/2000/svg" version="1.1" xmlns:xlink="http://www.w3.org/1999/xlink" width="512" height="512" x="0" y="0" viewBox="0 0 512 512" style="enable-background:new 0 0 512 512" xml:space="preserve" class=""><g><path d="M496 142.169h-49.278l42.862-74.239.003-.004.003-.006 5.71-9.891c7.38-12.784 2.985-29.188-9.799-36.568L479 17.707c-6.18-3.568-13.394-4.512-20.309-2.66-6.917 1.853-12.69 6.277-16.259 12.458L376.23 142.169h-234.8V65.745a8.001 8.001 0 0 0-3.991-6.923c-13.068-7.569-27.998-11.57-43.175-11.57C46.698 47.252 8 85.95 8 133.517v278.09c0 47.566 38.699 86.265 86.265 86.265H496a8 8 0 0 0 8-8V150.169a8 8 0 0 0-8-8zm-58.532 274.419v11.921H191.962v-11.921zm-144.078-16h-45.202v-68.131h45.202zM416.825 269.92v130.668H309.39v-76.131a8 8 0 0 0-8-8h-61.202a8 8 0 0 0-8 8v76.131h-19.583V269.92a8 8 0 0 0-7.808-7.998l109.919-49.613 31.294 14.125v15.271a8 8 0 0 0 12 6.928l16.315-9.42 50.31 22.708a8.001 8.001 0 0 0-7.81 7.999zM251.67 223.211l-17.576 7.933v-10.248h17.576zm110.339 4.638v-17.335l15.012 8.667zm28.084-19.596-25.156-14.524L446.574 52.33l25.156 14.524zm72.738-177.751A10.687 10.687 0 0 1 471 31.564l6.502 3.754c2.479 1.432 4.256 3.755 5.003 6.543s.37 5.689-1.062 8.168l-1.714 2.968-25.156-14.524 1.714-2.968a10.698 10.698 0 0 1 6.544-5.003zM24 133.517c0-38.744 31.521-70.264 70.265-70.264a70.312 70.312 0 0 1 31.166 7.275v260.628a86.446 86.446 0 0 0-31.166-5.814c-28.948 0-54.609 14.33-70.265 36.271zm464 348.354H94.265c-38.744 0-70.265-31.52-70.265-70.265 0-38.744 31.521-70.265 70.265-70.265 12.364 0 24.521 3.256 35.156 9.416a7.998 7.998 0 0 0 12.009-6.923V158.169h225.563l-19.912 34.488a8.002 8.002 0 0 0-1.072 4v12.222l-28.003-12.639a8.003 8.003 0 0 0-6.582 0l-43.754 19.749v-3.093a8 8 0 0 0-8-8h-33.576a8 8 0 0 0-8 8v25.469l-38.354 17.312c-5.037 2.272-7.741 7.639-6.576 13.051 1.164 5.412 5.836 9.191 11.362 9.191h12.079v122.668h-12.643a8 8 0 0 0-8 8v27.921a8 8 0 0 0 8 8h261.506a8 8 0 0 0 8-8v-27.921a8 8 0 0 0-8-8h-12.643V277.92h12.079c5.526 0 10.199-3.78 11.363-9.192 1.164-5.411-1.541-10.778-6.576-13.049l-58.303-26.316 5.633-3.252a7.999 7.999 0 0 0 2.928-2.928l37.535-65.012H488zm-160.002-196.79a8 8 0 0 0-8 8v42.614a8 8 0 0 0 8 8h58.824a8 8 0 0 0 8-8v-42.614a8 8 0 0 0-8-8zm50.824 42.614h-42.824v-26.614h42.824z" fill="#f65801" opacity="1" data-original="#000000" class=""></path></g></svg>