<svg xmlns="http://www.w3.org/2000/svg" version="1.1" xmlns:xlink="http://www.w3.org/1999/xlink" width="512" height="512" x="0" y="0" viewBox="0 0 512 512" style="enable-background:new 0 0 512 512" xml:space="preserve" class=""><g><path d="M448 471.902c-35.348 0-64-28.652-64-64 0-35.343 28.652-64 64-64s64 28.657 64 64c-.04 35.332-28.672 63.961-64 64zm0-112c-26.508 0-48 21.493-48 48 0 26.512 21.492 48 48 48s48-21.488 48-48c-.031-26.496-21.504-47.968-48-48zm0 0" fill="#f65801" opacity="1" data-original="#000000"></path><path d="M512 407.902h-16v-304c0-26.507-21.492-48-48-48s-48 21.493-48 48v304h-16v-304c0-35.343 28.652-64 64-64s64 28.657 64 64zm0 0" fill="#f65801" opacity="1" data-original="#000000"></path><path d="M448 439.902c-17.672 0-32-14.324-32-32 0-17.672 14.328-32 32-32s32 14.328 32 32c0 17.676-14.328 32-32 32zm0-48c-8.836 0-16 7.164-16 16 0 8.84 7.164 16 16 16s16-7.16 16-16c0-8.836-7.164-16-16-16zM40 471.902H8c-4.418 0-8-3.578-8-8v-352a8 8 0 0 1 8-8h208v16H16v336h24zM256 423.902h144v16H256zm0 0" fill="#f65801" opacity="1" data-original="#000000"></path><path d="M48 191.902H32v-48a8 8 0 0 1 8-8h144v16H48zM328 511.902H40c-4.418 0-8-3.578-8-8v-288a8 8 0 0 1 13.656-5.652l288 288A7.999 7.999 0 0 1 328 511.902zm-280-16h260.688L48 235.215zm0 0" fill="#f65801" opacity="1" data-original="#000000"></path><path d="M288 455.902h160v16H288zM232 471.902H80c-4.418 0-8-3.578-8-8v-152a8 8 0 0 1 13.656-5.652l152 152A7.999 7.999 0 0 1 232 471.902zm-144-16h124.688L88 331.215zm0 0" fill="#f65801" opacity="1" data-original="#000000"></path><path d="M80 423.902h120v16H80zM173.895 232.504a7.997 7.997 0 0 1-7.598-5.512l-5.168-15.77-8.8-9-15.419-5.238a8.007 8.007 0 0 1-5.21-5.718 8.006 8.006 0 0 1 2.07-7.457L311.848 2.305a8.23 8.23 0 0 1 11.425 0l34.399 35.093a8 8 0 0 1 0 11.204L179.609 230.105a7.996 7.996 0 0 1-5.714 2.399zm-19.817-46.574 5.168 1.757a7.997 7.997 0 0 1 3.145 1.977l11.48 11.695a8.039 8.039 0 0 1 1.89 3.114l1.645 5.03L340.801 43l-23.2-23.672zm0 0" fill="#f65801" opacity="1" data-original="#000000"></path><path d="M116.496 255.902a7.997 7.997 0 0 1-6.61-3.492 8.003 8.003 0 0 1-.84-7.426l22.962-58.496 14.887 5.84-16.141 41.121 40.11-16.344 6.058 14.797-57.402 23.41a8.03 8.03 0 0 1-3.024.59zM277.418 48.605l11.422-11.207 34.433 35.094L311.852 83.7zM260.2 66.152l11.421-11.207 34.434 35.098-11.418 11.203zM256 335.902h-16v-24a8 8 0 0 1 7.559-8l29.32-1.597a119.7 119.7 0 0 1 9.992-24l-19.633-21.907a8 8 0 0 1 .305-11l33.914-33.918a7.999 7.999 0 0 1 10.992-.304l21.95 19.61a119.05 119.05 0 0 1 24-10L360 191.464a8.003 8.003 0 0 1 8-7.563h24v16h-16.426l-1.511 27.563a7.995 7.995 0 0 1-6.133 7.344 103.603 103.603 0 0 0-30.403 12.632 8.002 8.002 0 0 1-9.527-.863l-20.602-18.465-23.199 23.2 18.48 20.59a8.006 8.006 0 0 1 .848 9.53 103.747 103.747 0 0 0-12.632 30.399 8 8 0 0 1-7.344 6.129L256 319.473zm0 0" fill="#f65801" opacity="1" data-original="#000000"></path><path d="M328 335.902h-16c.055-44.16 35.84-79.945 80-80v16c-35.328.043-63.96 28.672-64 64zm0 0" fill="#f65801" opacity="1" data-original="#000000"></path><path d="M160 327.902h232v16H160zM352 359.902h16v16h-16zM320 359.902h16v16h-16zM288 359.902h16v16h-16zM264 391.902h104v16H264zm0 0" fill="#f65801" opacity="1" data-original="#000000"></path><path d="M208 335.902h-16v-24a8 8 0 0 0-8-8h-8c-13.254 0-24-10.742-24-24 0-13.254 10.746-24 24-24h40c4.418 0 8-3.578 8-8v-16h16v16c0 13.258-10.746 24-24 24h-40a8 8 0 0 0 0 16h8c13.254 0 24 10.746 24 24zM224 199.902h16v16h-16zM288 103.902h104v16H288zM256 135.902h136v16H256zm0 0" fill="#f65801" opacity="1" data-original="#000000"></path></g></svg>