<svg xmlns="http://www.w3.org/2000/svg" version="1.1" xmlns:xlink="http://www.w3.org/1999/xlink" width="512" height="512" x="0" y="0" viewBox="0 0 512 512" style="enable-background:new 0 0 512 512" xml:space="preserve" class=""><g><path d="M274.99 319.62H237c-48.2 0-87.42 39.22-87.42 87.42v61.65c0 14.19 11.56 25.74 25.77 25.74h161.29c14.21 0 25.77-11.55 25.77-25.74v-61.65c0-48.2-39.22-87.42-87.42-87.42zm71.43 149.08c0 5.38-4.39 9.75-9.78 9.75h-29.39v-50.09c0-4.42-3.58-7.99-7.99-7.99s-7.99 3.58-7.99 7.99v50.09h-70.53v-50.09c0-4.42-3.58-7.99-7.99-7.99s-7.99 3.58-7.99 7.99v50.09h-29.39c-5.39 0-9.78-4.37-9.78-9.75v-61.65c0-39.39 32.04-71.43 71.43-71.43H275c39.39 0 71.43 32.04 71.43 71.43v61.65zm-90.43-278.45c-33.98 0-61.63 27.65-61.63 61.63 0 34 27.65 61.65 61.63 61.65 34 0 61.65-27.66 61.65-61.65.01-33.98-27.65-61.63-61.65-61.63zm0 107.29c-25.17 0-45.64-20.49-45.64-45.67 0-25.17 20.47-45.64 45.64-45.64 25.18 0 45.67 20.47 45.67 45.64 0 25.19-20.48 45.67-45.67 45.67zm-74.95-201.9 29.58 21.41c.14.1.58.41.33 1.16l-11.31 34.64c-2.3 7.06.18 14.75 6.18 19.12 3 2.19 6.52 3.28 10.04 3.28s7.05-1.1 10.06-3.29l29.42-21.49c.45-.33.83-.33 1.29 0l29.46 21.49c6 4.37 14.07 4.37 20.04.02 6.03-4.35 8.52-12.04 6.21-19.14l-11.31-34.65c-.16-.49-.04-.88.38-1.18l29.56-21.39c5.98-4.36 8.48-12.01 6.21-19.09a17.062 17.062 0 0 0-16.26-11.81l-36.43.08c-.71 0-.92-.39-1.04-.75l-11.2-34.7c0-.01-.01-.03-.01-.04-2.31-7.04-8.84-11.76-16.24-11.76s-13.93 4.73-16.25 11.81l-11.16 34.67c-.17.54-.51.78-1.05.78l-36.44-.08c-7.43 0-13.97 4.75-16.29 11.84-2.27 7.05.23 14.7 6.23 19.07zm8.97-14.14c.18-.54.51-.78 1.06-.78l36.44.08c7.43 0 13.97-4.75 16.28-11.84l11.15-34.65c.17-.51.51-.76 1.05-.76s.88.25 1.05.75l11.18 34.64c2.26 7.09 8.79 11.86 16.28 11.86l36.43-.08c.54 0 .87.25 1.03.74.17.51.03.92-.39 1.23l-29.52 21.36c-6.05 4.35-8.54 12.04-6.22 19.12l11.31 34.64c.22.68-.08 1.01-.39 1.24-.43.31-.82.31-1.24 0l-29.45-21.48c-6.02-4.4-14.12-4.4-20.14 0l-29.42 21.48c-.43.31-.85.31-1.28 0-.44-.32-.56-.71-.39-1.23l11.31-34.63c2.34-7.12-.17-14.82-6.2-19.12l-29.52-21.36c-.43-.33-.57-.73-.41-1.21zm238.8 138.14c2.8 2.07 6.09 3.1 9.39 3.1 3.28 0 6.56-1.02 9.36-3.07a15.87 15.87 0 0 0 5.76-17.79l-9.84-30.1 25.62-18.53c5.63-4.05 7.96-11.2 5.82-17.8-2.14-6.58-8.22-11-15.16-11l-31.65.08-9.72-30.13c-2.1-6.6-8.17-11.03-15.13-11.03-6.9 0-12.98 4.42-15.12 11.01l-9.73 30.15-31.67-.08a15.87 15.87 0 0 0-15.14 11c-2.13 6.56.2 13.71 5.81 17.79l25.64 18.55-9.8 30.05c-2.2 6.61.12 13.79 5.7 17.81 5.59 4.12 13.13 4.13 18.76.02l25.56-18.66zm9.28-12.85c0-.01 0-.01 0 0zm5.92 5.41-5.87-5.38c0-.02.01-.04.02-.05.02 0 .05-.01.07-.01zm-75.5-5.63 9.73-29.84c2.2-6.61-.12-13.79-5.76-17.85l-25.49-18.44 31.46.08c6.92 0 13.01-4.42 15.15-11.01l9.66-29.91 9.66 29.93c2.14 6.58 8.22 11 15.16 11l31.44-.08-25.51 18.45a15.875 15.875 0 0 0-5.76 17.79l9.77 29.89-25.42-18.54c-2.79-2.03-6.07-3.05-9.35-3.05s-6.56 1.02-9.37 3.06zm-209.71-4.69-9.84-30.1 25.62-18.53c5.63-4.05 7.96-11.2 5.82-17.8-2.14-6.58-8.22-11-15.16-11l-31.65.08-9.73-30.15v-.01c-2.14-6.58-8.21-11-15.11-11S95.76 87.8 93.62 94.39l-9.73 30.15-31.67-.08c-6.92 0-13.01 4.42-15.14 10.99-2.14 6.6.2 13.75 5.81 17.79l25.64 18.55-9.85 30.11c-2.14 6.57.18 13.72 5.75 17.77a15.86 15.86 0 0 0 18.75 0l25.56-18.66 25.56 18.64c2.8 2.07 6.09 3.1 9.39 3.1 3.28 0 6.56-1.02 9.36-3.07a15.895 15.895 0 0 0 5.75-17.8zm-88.1 12.23 3.09-7.34h.05c.01.03.02.06.03.07zm3.18-7.29.01-.04zm44.21-18.78a15.846 15.846 0 0 0-18.71.01L73.95 206.6l9.77-29.87c2.2-6.61-.12-13.79-5.76-17.85l-25.49-18.44 31.46.08c6.92 0 13.01-4.42 15.15-11.01l9.66-29.91 9.66 29.93c2.14 6.58 8.22 11 15.16 11l31.44-.08-25.48 18.43c-5.66 4.07-7.98 11.25-5.79 17.82l9.77 29.89zm25.48 18.75c0-.01 0-.01 0 0zm.04.03c0-.02.01-.03.02-.05.02 0 .05-.01.07-.01l5.79 5.43zm367.65 75.14c-1.94-6.01-7.5-10.04-13.86-10.04l-25.21.05-7.75-24.02a14.461 14.461 0 0 0-13.81-10.04c-6.34 0-11.9 4.04-13.84 10.05l-7.75 24.02-25.23-.05c-6.34 0-11.9 4.04-13.83 10-1.99 6.04.13 12.6 5.29 16.32l20.43 14.77-7.83 23.96c-1.99 6.04.14 12.6 5.25 16.3 5.12 3.75 12 3.75 17.12 0l20.39-14.89 20.38 14.88c2.56 1.88 5.57 2.81 8.57 2.81 2.99 0 5.98-.93 8.51-2.79 5.16-3.73 7.28-10.29 5.29-16.3l-7.84-23.97 20.43-14.77c5.15-3.74 7.27-10.3 5.29-16.29zm-35.96 18.71c-5.16 3.73-7.28 10.29-5.29 16.3l6.77 20.72-17.62-12.87a14.528 14.528 0 0 0-8.54-2.77c-3.01 0-6.02.93-8.59 2.79l-17.59 12.85 6.77-20.7c1.99-6.04-.13-12.6-5.29-16.32l-17.65-12.76 21.81.05c6.35 0 11.92-4.06 13.84-10.07l6.69-20.74 6.69 20.72c1.93 6.04 7.5 10.1 13.87 10.1l21.79-.05zm-367.12-28.75-25.21.05-7.75-24.02a14.461 14.461 0 0 0-13.81-10.04c-6.34 0-11.9 4.04-13.84 10.05l-7.75 24.02-25.23-.05c-6.34 0-11.9 4.04-13.83 10-1.98 6 .13 12.55 5.29 16.32l20.43 14.77-7.85 24.02c-1.93 6.03.21 12.56 5.28 16.23 5.1 3.73 11.98 3.74 17.14 0l20.37-14.88 20.37 14.87c2.57 1.88 5.57 2.81 8.57 2.81 2.99 0 5.98-.93 8.51-2.79 5.16-3.73 7.28-10.29 5.29-16.3L96.32 313l20.43-14.77c5.16-3.73 7.28-10.29 5.3-16.28-1.95-6-7.51-10.03-13.87-10.03zm-22.1 28.75c-5.16 3.73-7.28 10.29-5.29 16.3l6.77 20.72-17.62-12.87c-5.14-3.71-12.01-3.7-17.11.02L35.2 337.72 41.97 317c1.99-6.04-.13-12.6-5.29-16.32l-17.65-12.76 21.81.05c6.35 0 11.92-4.06 13.84-10.07l6.69-20.74 6.71 20.79c1.98 6 7.53 10.03 13.84 10.03l21.79-.05z" fill="#f65801" opacity="1" data-original="#000000" class=""></path></g></svg>