<svg xmlns="http://www.w3.org/2000/svg" version="1.1" xmlns:xlink="http://www.w3.org/1999/xlink" width="512" height="512" x="0" y="0" viewBox="0 0 496 496" style="enable-background:new 0 0 512 512" xml:space="preserve"><g><path d="M496 336V210.703c0-19.344-13.816-35.894-32.84-39.351L408 161.328v-15.441c14.61-11.742 24-29.719 24-49.88v-16h16V64h-16v-8c0-30.879-25.129-56-56-56h-16c-30.871 0-56 25.121-56 56v8h-16v16h16v16c0 19.121 8.473 36.266 21.809 48h-68.72l-8.378-14.672a80.89 80.89 0 0 0 2.289-5.48l21-5.743v-44.21l-21-5.743a80.89 80.89 0 0 0-2.29-5.48l10.81-18.918-31.254-31.266-18.938 10.801A84.19 84.19 0 0 0 203.855 21l-5.742-21h-44.218l-5.743 21a80.052 80.052 0 0 0-5.472 2.29l-18.938-10.802-31.254 31.266 10.809 18.918a80.89 80.89 0 0 0-2.29 5.48L80 73.895v44.21l21 5.743a80.89 80.89 0 0 0 2.29 5.48L94.91 144H40c-22.055 0-40 17.945-40 40v272c0 22.055 17.945 40 40 40h56v-64h86.113l32 16H456c22.055 0 40-17.945 40-40s-17.945-40-40-40h-24v-32zm-16-125.297V320h-32v-80h-16v80H304v-80h-16v80h-32V210.703c0-11.605 8.29-21.535 19.703-23.613l31.402-5.715 16.16 64.648L368 210.246l44.734 35.793 16.16-64.648 31.403 5.714c11.414 2.063 19.703 12 19.703 23.598zm-146.695-34.078 22.71 22.71-23.288 18.634-9.856-39.45zm79.824 1.895-9.856 39.449-23.289-18.633 22.711-22.711zM392 164.687l-24 24-24-24v-9.398c7.414 3.016 15.512 4.711 24 4.711s16.586-1.695 24-4.71zM416 56v8h-22.938l5.153-41.23C408.93 29.953 416 42.16 416 56zm-40-40c2.344 0 4.617.305 6.848.695L376.938 64h-17.875l-5.91-47.305c2.23-.39 4.503-.695 6.847-.695zm-56 40c0-13.84 7.07-26.047 17.785-33.23L342.938 64H320zm0 40V80h96v16c0 26.473-21.527 48-48 48s-48-21.527-48-48zm-200.586 29.84c-1.887-3.559-3.43-7.246-4.574-10.953l-1.29-4.2L96 105.895v-19.79l17.543-4.8 1.289-4.2a64.042 64.042 0 0 1 4.574-10.953l2.067-3.886-9.04-15.832 13.993-14 15.832 9.03 3.879-2.05a64.16 64.16 0 0 1 10.968-4.574l4.192-1.297L166.113 16h19.782l4.808 17.543 4.192 1.297a64.16 64.16 0 0 1 10.968 4.574l3.88 2.05 15.831-9.03 13.992 14-9.039 15.832 2.067 3.886c1.886 3.559 3.43 7.246 4.574 10.953l1.289 4.2 17.543 4.8v19.79l-17.543 4.8-1.289 4.2a64.042 64.042 0 0 1-4.574 10.953l-2.067 3.886L238.664 144H113.336l8.144-14.266zM80 480H40c-13.23 0-24-10.77-24-24s10.77-24 24-24h40zm144-96h176v48H224zm-16 43.055L169.887 408 208 388.945zM480 408c0 13.23-10.77 24-24 24h-40v-48h40c13.23 0 24 10.77 24 24zm-64-40H214.113l-80 40 16 8H40c-9.04 0-17.297 3.129-24 8.207V184c0-13.23 10.77-24 24-24h288v1.328l-55.16 10.024c-19.024 3.464-32.84 20.007-32.84 39.351V336h176zm0 0" fill="#f65801" opacity="1" data-original="#000000"></path><path d="M224 96c0-26.473-21.527-48-48-48s-48 21.527-48 48 21.527 48 48 48 48-21.527 48-48zm-48 32c-17.648 0-32-14.352-32-32s14.352-32 32-32 32 14.352 32 32-14.352 32-32 32zM32 384h96v16H32zM144 176c-35.8 0-66.29 23.313-76.414 56.273L32 196.688V368h171.313l-35.586-35.586C200.68 322.281 224 291.754 224 256c0-44.113-35.887-80-80-80zM48 352V235.312L164.688 352zm106.406-32.91L80.91 245.602C85.91 214.793 112.344 192 144 192c35.29 0 64 28.71 64 64a63.756 63.756 0 0 1-53.594 63.09zm0 0" fill="#f65801" opacity="1" data-original="#000000"></path></g></svg>