<svg xmlns="http://www.w3.org/2000/svg" version="1.1" xmlns:xlink="http://www.w3.org/1999/xlink" width="512" height="512" x="0" y="0" viewBox="0 0 62 62" style="enable-background:new 0 0 512 512" xml:space="preserve" class=""><g><path d="M59 2h-9.335a3 3 0 0 0-2.95 2.456l-1.346 7.308a7.542 7.542 0 0 0-3.561-2.569 7.851 7.851 0 0 0-5.11-5.037l-.908-1.816A4.215 4.215 0 0 0 32 0c-1.544 0-2.939.82-3.69 2.155a7.852 7.852 0 0 0-5.132 5.087 6.73 6.73 0 0 0-3.915 4.583l-.094.378a7.553 7.553 0 0 0-4.958 5.644L14.18 18H14c-1.103 0-2 .897-2 2v2c0 1.103.897 2 2 2h.095l.817 8.169A3.99 3.99 0 0 0 12.556 34h-.793L6.42 14.408A3.274 3.274 0 0 0 3.268 12 3.272 3.272 0 0 0 0 15.268v.439c0 .281.036.562.107.832L4.702 34H4c-1.103 0-2 .897-2 2v2c0 1.103.897 2 2 2h.044l.87 19.137A2.995 2.995 0 0 0 7.911 62H56c1.103 0 2-.897 2-2v-8c0-1.103-.897-2-2-2h-6v-8c0-1.103-.897-2-2-2h-1.795l5.625-30H59c1.654 0 3-1.346 3-3V5c0-1.654-1.346-3-3-3zM20.242 13.97l.583-.146.378-1.514a4.738 4.738 0 0 1 3.113-3.362l.521-.173.133-.533a5.862 5.862 0 0 1 4.272-4.272l.446-.111.312-.623C30.381 2.474 31.147 2 32 2s1.619.474 2 1.236l1.312 2.622.446.111a5.86 5.86 0 0 1 4.272 4.272l.146.583.583.145a5.543 5.543 0 0 1 4.011 4.049L44.22 18H16.238a5.534 5.534 0 0 1 4.004-4.03zM14 20h29.852l-.368 2H14zm29.115 4-2.947 16H34c-1.103 0-2 .897-2 2v8h-4.499l.455-10H28c1.103 0 2-.897 2-2v-2c0-1.103-.897-2-2-2h-8.556a3.994 3.994 0 0 0-2.527-1.884L16.105 24zM20 36h8v2h-8.556A3.959 3.959 0 0 0 20 36zm-4-2c1.103 0 2 .897 2 2s-.897 2-2 2-2-.897-2-2 .897-2 2-2zM2.042 16.028A1.23 1.23 0 0 1 2 15.707v-.439a1.269 1.269 0 0 1 2.491-.334L9.691 34h-2.92zM4 36h8c0 .732.212 1.409.556 2H4zm10.893 4c-.672 5.817-3.6 11.023-8.183 14.603L6.047 40zM7.911 60a.998.998 0 0 1-.999-.954l-.093-2.042A23.58 23.58 0 0 0 16.905 40h9.049l-.458 10.072A1.999 1.999 0 0 0 24 52v8zM26 52h14v8H26zm30.001 8H42v-8h14zM48 50H34v-8h14zm-3.83-10h-1.969l5.526-30h2.068zM60 7c0 .552-.449 1-1 1H48.096l.586-3.182A1 1 0 0 1 49.665 4H59c.551 0 1 .448 1 1z" fill="#f65801" opacity="1" data-original="#000000" class=""></path><path d="M28 10h2c0-1.103.897-2 2-2V6c-2.206 0-4 1.794-4 4zM22 16h2c0-1.103.897-2 2-2v-2c-2.206 0-4 1.794-4 4zM36 12v2c1.103 0 2 .897 2 2h2c0-2.206-1.794-4-4-4z" fill="#f65801" opacity="1" data-original="#000000" class=""></path></g></svg>