<svg xmlns="http://www.w3.org/2000/svg" version="1.1" xmlns:xlink="http://www.w3.org/1999/xlink" width="512" height="512" x="0" y="0" viewBox="0 0 1707 1707" style="enable-background:new 0 0 512 512" xml:space="preserve" fill-rule="evenodd" class=""><g><path d="M583 1009H395c-40 0-40-60 0-60h188c40 0 40 60 0 60zm871 694H252c-39 0-39-60 0-60h1202c40 0 40 60 0 60zm99-114H31c-40 0-40-60 0-60h92v-84c0-17 14-30 30-30h177v-177c0-20 3-41 8-60H43c-17 0-30-14-30-30V165c0-17 13-30 30-30h701l-8-99c-1-17 13-32 30-32h185c17 0 31 15 29 32l-5 74c147 47 250 178 262 331 18 0 41 3 41 30v113c0 17-13 30-30 30h-73v85c0 97-54 181-134 224l20 79c91 0 161-9 237 52l138-516c4-16 21-25 37-21l199 53c16 5 25 21 21 37l-46 174c6 50 3 107-11 158l-127 476c85 0 74-5 74 114h93c40 0 40 60 0 60zM390 1415h119v-103c0-39 60-39 60 0v103h579v-103c0-39 60-39 60 0v103h118v-177c0-96-78-176-176-176h-104l-172 109c-21 13-42-7-69-24 0 17-13 31-30 31H401c-7 19-11 39-11 60zm996 0h61l132-492c23-87 7-187-22-221l-78-93-133 497c26 38 40 83 40 132zm137 114v-54H183v54zM921 953H805v123l53 34 145-92-18-73c-21 5-42 8-64 8zm-116-60h116c105 0 194-85 194-194v-85H805v176l98-2c39 0 39 60 0 60l-98-1zm-60 200V195H73v923h672zm432-652c-12-122-92-227-206-270l-13 177c-1 16-14 28-30 28H805v65zM913 131l5-67H799l18 252h83zM805 554h413v-53H805zm807 122 15-56-78-20zM600 310H217c-39 0-39-60 0-60h383c39 0 39 60 0 60zM161 539l-43-44c-28-28 14-70 42-42l23 22 85-85c28-28 70 14 42 42L204 539c-12 11-31 11-43 0zm517-79H395c-40 0-40-60 0-60h283c40 0 40 60 0 60zm-95 88H395c-40 0-40-60 0-60h188c40 0 40 60 0 60zM161 769l-43-43c-28-28 14-70 42-42l23 22 85-85c28-28 70 14 42 42L204 769c-12 12-31 12-43 0zm517-78H395c-40 0-40-60 0-60h283c40 0 40 60 0 60zm-95 87H395c-40 0-40-60 0-60h188c40 0 40 60 0 60zm-422 222-43-43c-28-28 14-71 42-43l23 23 85-86c28-28 70 15 42 43l-106 106c-12 12-31 12-43 0zm517-79H395c-40 0-40-60 0-60h283c40 0 40 60 0 60z" fill="#f65801" opacity="1" data-original="#000000"></path></g></svg>