<svg xmlns="http://www.w3.org/2000/svg" version="1.1" xmlns:xlink="http://www.w3.org/1999/xlink" width="512" height="512" x="0" y="0" viewBox="0 0 64 64" style="enable-background:new 0 0 512 512" xml:space="preserve" class=""><g><path d="M18.878 28.07a1.93 1.93 0 0 0-.551 3.822c4.249.612 6.67 3.09 7.196 7.36a9.703 9.703 0 0 1-.261 3.796 8.714 8.714 0 0 1-5.454 5.919 9.46 9.46 0 0 1-6.358.263c-5.744-1.823-5.594-8.565-5.583-8.92 0-11.238 10.558-26.644 10.665-26.798a1.93 1.93 0 0 0-3.176-2.197c-.464.67-11.351 16.546-11.35 28.918-.136 3.433 1.417 10.501 8.277 12.677a13.077 13.077 0 0 0 3.955.608 13.494 13.494 0 0 0 5.003-.965 12.605 12.605 0 0 0 7.736-8.452 13.398 13.398 0 0 0 .379-5.32 11.649 11.649 0 0 0-10.478-10.712zM59.89 38.78A11.649 11.649 0 0 0 49.41 28.07a1.93 1.93 0 0 0-.551 3.822c4.25.612 6.67 3.09 7.197 7.36a9.711 9.711 0 0 1-.261 3.796 8.714 8.714 0 0 1-5.455 5.919 9.46 9.46 0 0 1-6.358.263c-5.744-1.823-5.593-8.565-5.583-8.92 0-11.238 10.559-26.644 10.665-26.798a1.93 1.93 0 0 0-3.175-2.197c-.464.67-11.352 16.546-11.35 28.918-.137 3.433 1.417 10.501 8.276 12.677a13.08 13.08 0 0 0 3.956.608 13.492 13.492 0 0 0 5.003-.965A12.607 12.607 0 0 0 59.51 44.1a13.412 13.412 0 0 0 .378-5.32z" fill="#f65801" opacity="1" data-original="#000000"></path></g></svg>