<svg xmlns="http://www.w3.org/2000/svg" version="1.1" xmlns:xlink="http://www.w3.org/1999/xlink" width="512" height="512" x="0" y="0" viewBox="0 0 512 512" style="enable-background:new 0 0 512 512" xml:space="preserve" class=""><g><path d="M205.307 115.688h97.818c8.284 0 15-6.716 15-15V53.562c0-8.284-6.716-15-15-15H256C256 21.407 242.093 7.5 224.938 7.5s-31.062 13.907-31.062 31.062H146.75c-8.284 0-15 6.716-15 15v47.125c0 8.284 6.716 15 15 15h23.557M162.812 85.156h124.25M224.937 38.562h0M85.156 162.813v-26.594c0-11.046-8.954-20-20-20H43.031c-11.046 0-20 8.954-20 20v26.594M76.624 438.27l6.029-15.073a34.974 34.974 0 0 0 2.485-11.893M23.049 411.304a35.016 35.016 0 0 0 2.485 11.893l6.029 15.073M65.7 465.58l10.924-27.31c-6.677-3.696-14.358-5.8-22.53-5.8s-15.853 2.104-22.53 5.8l10.924 27.31c4.191 10.477 19.021 10.477 23.212 0z" style="stroke-width:15;stroke-linecap:round;stroke-linejoin:round;stroke-miterlimit:10;" fill="none" stroke="#f65801" stroke-width="15" stroke-linecap="round" stroke-linejoin="round" stroke-miterlimit="10" data-original="#000000" opacity="1" class=""></path><path d="M23.031 376.278v35.014l.018.011 19.864-9.932a25.001 25.001 0 0 1 22.361 0l19.864 9.932.018-.011v-248.48H23.031v178.466M54.094 162.813v235.919M302.594 212.179v-39.898c0-13.807 11.193-25 25-25h136.375c13.807 0 25 11.193 25 25v136.375c0 13.807-11.193 25-25 25H327.594c-13.807 0-25-11.193-25-25v-61.477" style="stroke-width:15;stroke-linecap:round;stroke-linejoin:round;stroke-miterlimit:10;" fill="none" stroke="#f65801" stroke-width="15" stroke-linecap="round" stroke-linejoin="round" stroke-miterlimit="10" data-original="#000000" opacity="1" class=""></path><path d="M411.39 195.111c17.803 4.475 30.985 20.589 30.985 39.78V256M349.188 256v-21.109c0-19.22 13.22-35.352 31.062-39.8M380.25 256v-62.125a5 5 0 0 1 5-5h21.062a5 5 0 0 1 5 5V256M445.771 256h-99.979c-5.575 0-9.202 5.867-6.708 10.854l1.722 3.444a30.327 30.327 0 0 0 27.125 16.764h55.702a30.327 30.327 0 0 0 27.125-16.764l1.722-3.444c2.493-4.987-1.134-10.854-6.709-10.854zM184.684 149.478l-27.643 27.643-16.661-16.661a7.5 7.5 0 0 0-10.607 0l-11.358 11.358a7.5 7.5 0 0 0 0 10.607l33.322 33.322a7.5 7.5 0 0 0 10.607 0l44.305-44.305a7.5 7.5 0 0 0 0-10.607l-11.358-11.358a7.501 7.501 0 0 0-10.607.001zM184.684 258.197l-27.643 27.643-16.661-16.661a7.5 7.5 0 0 0-10.607 0l-11.358 11.358a7.5 7.5 0 0 0 0 10.607l33.322 33.322a7.5 7.5 0 0 0 10.607 0l44.305-44.305a7.5 7.5 0 0 0 0-10.607l-11.358-11.358a7.501 7.501 0 0 0-10.607.001zM184.684 359.922l-27.643 27.643-16.661-16.661a7.5 7.5 0 0 0-10.607 0l-11.358 11.358a7.5 7.5 0 0 0 0 10.607l33.322 33.322a7.5 7.5 0 0 0 10.607 0l44.305-44.305a7.5 7.5 0 0 0 0-10.607l-11.358-11.358a7.501 7.501 0 0 0-10.607.001zM240.469 164.357h62.125M240.469 195.419h62.125M240.469 273.076h62.125M240.469 304.138h31.062M240.469 381.794h77.656M240.469 412.857h62.125" style="stroke-width:15;stroke-linecap:round;stroke-linejoin:round;stroke-miterlimit:10;" fill="none" stroke="#f65801" stroke-width="15" stroke-linecap="round" stroke-linejoin="round" stroke-miterlimit="10" data-original="#000000" opacity="1" class=""></path><path d="M131.75 85.156H85.156v388.282h279.563V333.656M364.719 147.281V85.156h-46.594" style="stroke-width:15;stroke-linecap:round;stroke-linejoin:round;stroke-miterlimit:10;" fill="none" stroke="#f65801" stroke-width="15" stroke-linecap="round" stroke-linejoin="round" stroke-miterlimit="10" data-original="#000000" opacity="1" class=""></path><path d="M54.094 473.438v6.062c0 13.807 11.193 25 25 25h291.688c13.807 0 25-11.193 25-25V333.656M131.75 54.094H79.094c-13.807 0-25 11.193-25 25v37.125M395.781 147.281V79.094c0-13.807-11.193-25-25-25h-52.656" style="stroke-width:15;stroke-linecap:round;stroke-linejoin:round;stroke-miterlimit:10;" fill="none" stroke="#f65801" stroke-width="15" stroke-linecap="round" stroke-linejoin="round" stroke-miterlimit="10" data-original="#000000" opacity="1" class=""></path></g></svg>