<svg xmlns="http://www.w3.org/2000/svg" version="1.1" xmlns:xlink="http://www.w3.org/1999/xlink" width="512" height="512" x="0" y="0" viewBox="0 0 512 512" style="enable-background:new 0 0 512 512" xml:space="preserve" class=""><g><path d="M488 256h-40v-64a8 8 0 0 0-8-8H328V72a7.952 7.952 0 0 0-.851-3.575l.006-.003-16-32A8 8 0 0 0 304 32h-96a8 8 0 0 0-7.155 4.422l-16 32 .006.003A7.952 7.952 0 0 0 184 72v83.333l-44.923-18.718A8 8 0 0 0 128 144v112H24a8 8 0 0 0-8 8v208a8 8 0 0 0 8 8h464a8 8 0 0 0 8-8V264a8 8 0 0 0-8-8zm-56 0H288v-56h144zm-151.155 36.422a8.003 8.003 0 0 0 0 7.156L294.555 327l-40.262 50.33 9.552-47.76a8 8 0 0 0-3.407-8.225l-18.124-12.083L260.944 272h30.112zM212.945 48h86.11l8 16h-102.11zM200 80h112v104h-32a8 8 0 0 0-8 8v64h-32v-72a8 8 0 0 0-4.923-7.385L200 162zm-56 76 80 33.333V256h-80zm336 308H32V304h80v-16H32v-16h211.056l-8 16H184v16h43.056l-2.211 4.422a8 8 0 0 0 2.717 10.234l19.542 13.029-14.949 74.746a8 8 0 0 0 14.092 6.566l64-80a8 8 0 0 0 .908-8.575L300.945 304H480zm0-176H300.944l8-16H480z" fill="#f65801" opacity="1" data-original="#000000" class=""></path><path d="M136 288h24v16h-24zM163.2 350.4l9.6-12.8 32 24-9.6 12.8zM66.3 346.315l23.996-23.996 11.313 11.312-23.996 23.996zM116.228 407.122l7.152-14.304 15.993 7.996-7.152 14.304zM190.4 387.2a8.002 8.002 0 0 0-6.4-3.2h-16a7.999 7.999 0 0 0-7.76 6.06l-8 32A8 8 0 0 0 160 432h48a8 8 0 0 0 6.4-12.8zM170.246 416l4-16H180l12 16zM87.428 381.03A8 8 0 0 0 75.2 377.6l-32 24a8.002 8.002 0 0 0-.857 12.057l24 24a8.004 8.004 0 0 0 8.187 1.933l24-8a8 8 0 0 0 4.898-10.56zM74.16 422.846 60.18 408.865l16.27-12.202 8.97 22.43zM304.845 396.422l-8 16a8.001 8.001 0 0 0 4.625 11.168l48 16a7.994 7.994 0 0 0 9.884-4.439l12-28a8.002 8.002 0 0 0-.494-7.267l-12-20a8 8 0 0 0-12.517-1.541L332.687 392H312a8 8 0 0 0-7.155 4.422zm12.1 11.578H336a8.002 8.002 0 0 0 5.657-2.343l8.755-8.755 4.623 7.706-7.488 17.475-32.267-10.756zM344.155 361.57a8 8 0 0 0 12.645 4.83l32-24a8.002 8.002 0 0 0 .857-12.057l-16-16A8.002 8.002 0 0 0 368 312h-24a8 8 0 0 0-7.845 9.57zM364.687 328l7.133 7.135-14.465 10.848L353.76 328zM405.488 367.379l5.056-15.185 24.008 7.994-5.056 15.185zM428.166 320.831l15.993-7.996 7.152 14.304-15.993 7.996zM160 192h16v16h-16zM192 192h16v16h-16zM216 96h16v16h-16zM248 96h16v16h-16zM280 96h16v16h-16zM216 128h16v16h-16zM248 128h16v16h-16zM280 128h16v16h-16zM248 160h16v16h-16zM280 160h16v16h-16zM304 216h16v16h-16zM336 216h16v16h-16zM368 216h16v16h-16zM400 216h16v16h-16zM160 224h16v16h-16zM192 224h16v16h-16z" fill="#f65801" opacity="1" data-original="#000000" class=""></path></g></svg>