<svg xmlns="http://www.w3.org/2000/svg" version="1.1" xmlns:xlink="http://www.w3.org/1999/xlink" width="512" height="512" x="0" y="0" viewBox="0 0 508.349 508.349" style="enable-background:new 0 0 512 512" xml:space="preserve" class=""><g><path d="M430.396 393.493c-5.964-13.905-17.456-25.063-31.531-30.613l-86.629-34.16a4.871 4.871 0 0 1-3.102-4.557v-26.919c18.55-13.915 31.985-32.142 40.005-54.304 2.71-7.489 4.796-15.44 6.266-23.809 18.885-.878 33.98-16.514 33.98-35.612 0-3.878-.65-7.731-1.879-11.386 5.774-3.927 9.574-10.548 9.574-18.042v-1.826c0-12.023-9.781-21.805-21.805-21.805h-5.448v-16.48c0-39.031-21.153-74.591-55.321-93.29C313.701 9.147 304.06 0 292.316 0c-6.982 0-13.221 3.236-17.304 8.283a107.884 107.884 0 0 0-11.499-.618h-16.209c-4.545 0-9.121.29-13.601.863-.28.036-.553.089-.821.154C228.799 3.981 222.785 1 216.085 1c-11.896 0-21.641 9.383-22.224 21.137-.307.131-.61.276-.904.451-32.054 19.1-51.967 54.119-51.967 91.391v16.48h-7.365c-12.023 0-21.805 9.782-21.805 21.805v1.826c0 7.726 4.043 14.522 10.121 18.396a35.465 35.465 0 0 0-1.74 11.033c0 18.692 14.461 34.06 32.782 35.529 1.45 8.28 3.499 16.151 6.162 23.57 7.999 22.289 21.457 40.611 40.071 54.588v26.957a4.872 4.872 0 0 1-3.102 4.557l-86.629 34.16c-14.075 5.55-25.567 16.708-31.531 30.614C64.515 424.833 57.7 458.013 57.7 492.112c0 8.953 7.284 16.237 16.237 16.237h251.639c4.143 0 7.5-3.358 7.5-7.5s-3.357-7.5-7.5-7.5h-68.882v-18.48h15.953c6.76 0 12.259-5.499 12.259-12.259v-18.442c0-6.76-5.499-12.26-12.259-12.26h-15.953v-21.14h35.21c16.164 0 29.314-13.15 29.314-29.315v-33.068l12.961 5.111v38.675c0 11.784 4.46 22.99 12.56 31.553l11.345 11.992a16.294 16.294 0 0 1 4.475 11.243v46.39h-6.982c-4.143 0-7.5 3.358-7.5 7.5s3.357 7.5 7.5 7.5h78.838c8.953 0 16.236-7.284 16.236-16.237-.001-34.1-6.815-67.281-20.255-98.619zm-216.181-86.738c12.494 6.431 26.237 9.659 39.985 9.659 13.73 0 27.454-3.22 39.934-9.633v16.954a7.628 7.628 0 0 0-.383.435l-4.072 5.132c-8.649 10.899-21.59 17.15-35.505 17.15-13.913 0-26.855-6.251-35.504-17.15l-4.138-5.214c-.101-.127-.21-.242-.317-.361zm143.141-102.921c.738-8.915.846-18.238.317-27.94h15.258a20.446 20.446 0 0 1 1.454 7.624c0 10.15-7.366 18.595-17.029 20.316zm-2.528-89.855v16.48h-40.26v-92.2c25.057 16.878 40.26 45.054 40.26 75.72zm-69.764 16.48V23.252c0-3.999 3.253-7.252 7.252-7.252s7.252 3.253 7.252 7.252v107.207zm-37.76-107.794h16.209c2.183 0 4.372.078 6.551.232v107.562h-31.727V23.252c0-.05-.003-.099-.004-.149a92.913 92.913 0 0 1 8.971-.438zm-91.314 91.314c0-29.287 14.322-56.948 37.843-74.012V71.82a7.5 7.5 0 0 0 15 0V23.252c0-3.999 3.253-7.252 7.253-7.252 3.998 0 7.252 3.253 7.252 7.252v107.207h-14.504v-28.64a7.5 7.5 0 0 0-15 0v28.64H155.99zm-29.17 38.285a6.813 6.813 0 0 1 6.805-6.805h241.651a6.813 6.813 0 0 1 6.805 6.805v1.826a6.813 6.813 0 0 1-6.805 6.805H133.625a6.813 6.813 0 0 1-6.805-6.805zm8.381 31.254c0-2.646.514-5.202 1.479-7.624h14.044c-.525 9.609-.42 18.846.299 27.684-9.062-2.185-15.822-10.338-15.822-20.06zm30.553-7.624h176.891c3.108 52.975-13.627 91.454-49.794 114.373-23.479 14.88-53.823 14.879-77.302 0-36.172-22.923-52.906-61.399-49.795-114.373zM72.699 492.112c0-32.055 6.406-63.246 19.04-92.707 4.396-10.252 12.87-18.479 23.247-22.571l44.223-17.438v32.775c0 7.935-3.003 15.48-8.456 21.245l-11.343 11.992a31.238 31.238 0 0 0-8.579 21.551v46.39H73.937a1.239 1.239 0 0 1-1.238-1.237zm197.207-32.243h-57.634v-12.961h57.634zm-60.375-27.961c-6.76 0-12.259 5.5-12.259 12.26v18.442c0 6.76 5.499 12.259 12.259 12.259h32.163v18.48H145.83v-46.39c0-4.199 1.589-8.192 4.476-11.243l11.343-11.992a45.735 45.735 0 0 0 12.56-31.553s-.014-38.527-.023-38.681l12.985-5.12v33.083c0 16.164 13.15 29.315 29.314 29.315h25.209v21.14zm82.373-36.14h-75.419c-7.893 0-14.314-6.421-14.314-14.315v-39.022a19.988 19.988 0 0 0 5.211-3.256c11.508 14.16 28.514 22.278 46.793 22.278 18.28 0 35.287-8.118 46.795-22.278a19.99 19.99 0 0 0 5.249 3.273v39.005c-.001 7.893-6.423 14.315-14.315 14.315zm142.51 97.581h-56.855v-46.39c0-8.05-3.046-15.704-8.578-21.551l-11.344-11.992a30.793 30.793 0 0 1-8.457-21.245v-32.76l44.184 17.423c10.377 4.092 18.851 12.319 23.248 22.571 12.633 29.46 19.039 60.651 19.039 92.707a1.24 1.24 0 0 1-1.237 1.237z" fill="#f65801" opacity="1" data-original="#000000" class=""></path></g></svg>